# xmcd CD database file
#
# Track frame offsets:
#	150
#	37412
#	69577
#	120812
#	178827
#	193200
#	222962
#	252635
#	280815
#
# Disc length: 4192 seconds
#
# Revision: 0
# Processed by: cddbd v1.4PL0 Copyright (c) Steve Scherf et al.
# Submitted via: CDex 1.51
#
DISCID=90105e09
DTITLE=Christian Willisohn and Boris Vanderlek - Blues News
DYEAR=1900
DGENRE=Blues
TTITLE0=After Hours
TTITLE1=Willow Weep For Me
TTITLE2=Money
TTITLE3=I'm Gonna Move To The Outskirts Of Town
TTITLE4=Georgia On My Mind
TTITLE5=Heart-Broken Man
TTITLE6=Doodlin'
TTITLE7=Nobody Knows You When You're Down And Out
TTITLE8=Bring It On Home
EXTD=
EXTT0=
EXTT1=
EXTT2=
EXTT3=
EXTT4=
EXTT5=
EXTT6=
EXTT7=
EXTT8=
PLAYORDER=
